<svg width="50" height="50" viewBox="0 0 50 50" fill="none" xmlns="http://www.w3.org/2000/svg">
<g clip-path="url(#clip0_63_358)">
<path d="M38.668 6.77344C38.7188 6.43359 38.7227 6.09375 38.8281 5.78906C39.0156 5.25781 39.1836 4.6875 39.5078 4.24219C39.9336 3.66406 40.6055 3.67969 41.3711 4.15234C41.5156 3.82422 41.5938 3.44141 41.8164 3.18359C42.2266 2.70703 42.6563 2.1875 43.1914 1.89453C43.9531 1.47656 44.457 1.80859 45.0078 2.91406C45.8516 2.57812 46.7656 1.87109 47.6055 2.76172C48.3867 3.58984 47.7734 4.45312 47.3672 5.30078C47.543 5.38281 47.6875 5.44922 47.832 5.52344C48.5859 5.90625 48.8633 6.68359 48.293 7.37891C47.7422 8.05078 46.9609 8.53125 46.2578 9.11328C47.0313 10.3633 46.457 10.9687 43.7461 11.625C43.6641 12.1289 43.7266 12.668 43.4961 12.9961C43.1211 13.5234 42.4766 13.4219 41.9063 13.2422C40.7617 12.8828 39.6758 13.0508 38.6524 13.625C37.7891 14.1133 36.9492 14.6484 36.1719 15.2617C37.332 15.043 38.4805 14.7227 39.6524 14.6289C40.9805 14.5234 42.3242 14.5898 43.6602 14.6562C43.9883 14.6719 44.293 14.9961 44.6211 15.1523C44.8867 15.2773 45.1641 15.3828 45.4453 15.457C46.3906 15.6992 46.5938 15.9492 46.5742 16.918C47.3242 17.2227 47.75 17.6992 47.3086 18.5703C47.2656 18.6523 47.3672 18.8242 47.4297 18.9375C47.5 19.0625 47.6094 19.1602 47.6914 19.2773C48.1367 19.9062 48.5195 20.5977 48.082 21.332C47.6211 22.1094 46.7969 22.1602 45.9766 22.0625C45.7656 22.0391 45.5586 21.9961 45.3594 21.9648C44.9688 22.9961 44.4063 23.168 43.5195 22.5117C43.1406 22.2305 42.8203 21.8633 42.4727 21.5352C41.332 22.4062 40.9297 22.2383 39.9688 20.4648C38.8945 20.8281 38.4922 20.6055 38.1758 19.4883C37.9024 18.5234 37.5274 18.1094 36.5039 18.1367C35.6953 18.1602 34.8945 18.4648 34.0977 18.6797C33.8555 18.7461 33.6484 18.9297 33.5508 18.8711L31.3867 16.6836C31.5469 16.3203 31.8516 15.75 32.0469 15.1484C32.1758 14.75 32.207 14.3008 32.1875 13.8789C32.1328 12.7852 31.8047 12.418 30.7461 12.1133C29.6914 11.8125 29.4258 11.3008 29.8516 10.4297C29.3828 10.0664 28.8594 9.76172 28.4727 9.33203C27.9727 8.77734 28.2461 8.27344 28.8086 7.92187C28.375 7.39062 27.8906 6.94531 27.5938 6.40234C27.168 5.62891 27.4024 5.24219 28.3438 5.00391C28.3047 4.73828 28.25 4.46875 28.2266 4.19141C28.1641 3.42578 28.2422 2.66016 28.9649 2.22656C29.6445 1.81641 30.3242 2.10937 30.9024 2.53516C31.3125 2.83594 31.6289 3.07031 32.2188 2.875C32.8672 2.66016 33.1875 3.21484 33.3867 3.74219C34.3399 3.70703 34.5938 3.90234 34.832 4.78516C34.9453 5.19922 34.8984 5.67187 35.418 5.92578C35.582 6.00391 35.6367 6.38672 35.668 6.64062C35.9531 8.94531 35.8281 11.2266 35.1563 13.4609C35.0938 13.6641 35.0469 13.8711 34.9961 14.0742C34.9922 14.0859 35.0195 14.1094 35.1016 14.2109C36.3086 12.3516 37.8281 10.6641 37.0313 8.1875C36.9688 7.98828 36.9375 7.76172 36.957 7.55078C37.0469 6.63281 37.5977 6.37109 38.668 6.77344Z" fill="#0F9D58"/>
<path d="M36.6562 21.2461C36.0078 17.9922 31.9765 14.8829 28.7343 14.3594C24.2734 13.3633 21.75 16.0938 19.5078 19.0196C19.3593 19.211 19.4062 19.4883 19.6054 19.6251C20.3437 20.1329 21.0781 20.6797 21.8008 21.2696C22.1797 21.5782 21.8047 22.1758 21.3633 21.9649C20.4258 21.5196 19.5195 21.1055 18.6406 20.7227C18.4609 20.6446 18.25 20.6993 18.1289 20.8594C15.5547 24.3126 13.0429 27.8126 10.5234 31.3047C10.3867 31.4961 10.4297 31.7579 10.6172 31.8946C11.0859 32.2383 11.5547 32.5938 12.0156 32.9688C12.4023 33.2813 12.0234 33.8868 11.5742 33.6719C10.9765 33.3868 10.3906 33.1172 9.81247 32.8555C9.62888 32.7735 9.41794 32.8321 9.29685 32.9961C7.71872 35.168 6.09372 37.3047 4.53513 39.4883C2.35935 42.5313 0.464819 46.7461 1.51169 48.254C2.46482 49.6329 7.23826 48.8711 10.7343 46.1055C11.6875 45.3516 12.707 44.6836 13.7031 43.9844C13.8711 43.8672 13.9297 43.6485 13.8476 43.461C13.6054 42.9258 13.3515 42.3829 13.0898 41.8282C12.8789 41.3829 13.4765 41.0079 13.7851 41.3907C14.1367 41.8204 14.4726 42.2579 14.7929 42.6954C14.9297 42.8829 15.1875 42.9258 15.3789 42.7891C18.8828 40.3008 22.4023 37.8321 25.9453 35.4024C26.1133 35.2891 26.1758 35.0743 26.0937 34.8868C25.6992 33.9805 25.2734 33.043 24.8125 32.0743C24.6015 31.6329 25.1992 31.2579 25.5078 31.6368C26.1367 32.4102 26.7226 33.1993 27.2617 33.9922C27.3945 34.1876 27.6562 34.2383 27.8476 34.1055C28.7265 33.5079 29.6015 32.9063 30.4843 32.3126C34.4883 29.6172 37.1718 26.3751 36.6562 21.2461Z" fill="#F57C00"/>
</g>
<defs>
<clipPath id="clip0_63_358">
<rect width="50" height="50" fill="white"/>
</clipPath>
</defs>
</svg>
