<svg width="50" height="50" viewBox="0 0 50 50" fill="none" xmlns="http://www.w3.org/2000/svg">
<path d="M49.6953 36.4922C49.6953 41.9062 38.6445 46.2969 25 46.2969C11.3594 46.2969 0.300781 41.9062 0.300781 36.4922C0.300781 31.0742 0.875 3.70312 25 3.70312C49.1289 3.70312 49.6953 31.0703 49.6953 36.4922Z" fill="#FCC21B"/>
<path d="M32.1016 36.7071C35.8828 36.5664 37.6602 41.6328 41.4844 40.5235C42.1992 40.3203 42.9336 39.8399 43.5352 39.1992C44.1328 38.5547 44.5312 37.7852 44.7227 37.0664C45.8789 32.711 40.9844 28.625 39.3633 28.9571L32.1016 36.7071Z" fill="#D7598B"/>
<path d="M25 38.4296C24.3516 38.4296 23.8281 37.9062 23.8281 37.2578C23.8281 36.6093 24.3516 36.0859 25 36.0859C30.832 36.0859 35.8672 32.8906 37.5273 28.1367C37.6301 27.8436 37.8449 27.6033 38.1247 27.4685C38.4045 27.3337 38.7263 27.3155 39.0195 27.4179C39.3126 27.5206 39.5529 27.7355 39.6877 28.0153C39.8224 28.2951 39.8407 28.6169 39.7383 28.9101C37.75 34.6054 31.8281 38.4296 25 38.4296Z" fill="#2F2F2F"/>
<path d="M25 38.4297C18.1719 38.4297 12.25 34.6055 10.2578 28.9102C10.0429 28.3008 10.3672 27.6289 10.9765 27.418C11.5859 27.2071 12.2539 27.5274 12.4687 28.1368C14.1328 32.8946 19.1679 36.086 25 36.086C25.6484 36.086 26.1719 36.6094 26.1719 37.2578C26.1719 37.9063 25.6484 38.4297 25 38.4297Z" fill="#2F2F2F"/>
<path d="M12.0468 21.7227C11.9011 21.9633 11.6661 22.1365 11.3932 22.2045C11.1202 22.2726 10.8315 22.23 10.5898 22.0859C10.3487 21.9427 10.174 21.7101 10.1038 21.4386C10.0335 21.1671 10.0734 20.8789 10.2148 20.6367C10.2851 20.5156 12.0117 17.6602 15.8281 17.6602C19.6484 17.6602 21.375 20.5156 21.4492 20.6367C21.5435 20.799 21.5935 20.9832 21.594 21.1709C21.5945 21.3586 21.5456 21.5431 21.4521 21.7058C21.3587 21.8686 21.224 22.0039 21.0617 22.098C20.8993 22.1922 20.715 22.2419 20.5273 22.2422C20.1679 22.2422 19.8125 22.0586 19.6133 21.7266C19.5625 21.6406 18.3945 19.7891 15.8281 19.7891C13.2617 19.7852 12.0976 21.6406 12.0468 21.7227ZM39.4062 22.0898C39.2383 22.1914 39.0508 22.2383 38.8711 22.2383C38.5039 22.2383 38.1484 22.0469 37.9492 21.7148C37.9062 21.6367 36.7461 19.7852 34.1758 19.7852C31.5625 19.7852 30.4023 21.6953 30.3906 21.7148C30.2442 21.9518 30.0107 22.122 29.7403 22.1887C29.4699 22.2554 29.184 22.2135 28.9442 22.0718C28.7044 21.9302 28.5296 21.7001 28.4575 21.4311C28.3854 21.162 28.4217 20.8754 28.5586 20.6328C28.6289 20.5117 30.3554 17.6562 34.1758 17.6562C37.9922 17.6562 39.7148 20.5117 39.7851 20.6328C40.082 21.1406 39.9101 21.7969 39.4062 22.0898Z" fill="#2F2F2F"/>
</svg>
