<svg width="32" height="32" viewBox="0 0 32 32" fill="none" xmlns="http://www.w3.org/2000/svg">
<g clip-path="url(#clip0_139_37)">
<g filter="url(#filter0_dd_139_37)">
<path d="M26.209 2.06299H5.53402C3.5458 2.06299 1.93402 3.67476 1.93402 5.66299V26.338C1.93402 28.3262 3.5458 29.938 5.53402 29.938H26.209C28.1972 29.938 29.809 28.3262 29.809 26.338V5.66299C29.809 3.67476 28.1972 2.06299 26.209 2.06299Z" fill="url(#paint0_linear_139_37)"/>
<path d="M26.209 2.06299H5.53402C3.5458 2.06299 1.93402 3.67476 1.93402 5.66299V26.338C1.93402 28.3262 3.5458 29.938 5.53402 29.938H26.209C28.1972 29.938 29.809 28.3262 29.809 26.338V5.66299C29.809 3.67476 28.1972 2.06299 26.209 2.06299Z" fill="url(#paint1_radial_139_37)"/>
</g>
<g filter="url(#filter1_f_139_37)">
<path d="M28.122 4.56299V27.438" stroke="url(#paint2_linear_139_37)" stroke-width="1.5" stroke-linecap="round"/>
</g>
<g filter="url(#filter2_f_139_37)">
<path d="M5.39801 3.875H27.18" stroke="url(#paint3_linear_139_37)" stroke-width="1.5" stroke-linecap="round"/>
</g>
<g filter="url(#filter3_f_139_37)">
<path d="M9.95002 12.72C9.95002 12.5211 10.029 12.3303 10.1697 12.1896C10.3103 12.049 10.5011 11.97 10.7 11.97H13.064C13.6577 11.9704 14.2303 12.1902 14.6718 12.5871C15.1133 12.9841 15.3925 13.5302 15.4557 14.1205C15.519 14.7108 15.3618 15.3037 15.0145 15.7852C14.6672 16.2666 14.1542 16.6028 13.574 16.729C13.491 16.747 13.457 16.852 13.519 16.91L15.344 18.624C15.4891 18.7602 15.5741 18.9484 15.5804 19.1473C15.5867 19.3462 15.5137 19.5394 15.3775 19.6845C15.2413 19.8295 15.0531 19.9146 14.8542 19.9209C14.6553 19.9271 14.4621 19.8542 14.317 19.718L11.619 17.184C11.6048 17.1708 11.587 17.162 11.5678 17.1587C11.5487 17.1554 11.529 17.1578 11.5112 17.1656C11.4934 17.1733 11.4782 17.1861 11.4675 17.2023C11.4568 17.2185 11.4511 17.2375 11.451 17.257V19.28C11.451 19.4789 11.372 19.6696 11.2314 19.8103C11.0907 19.951 10.8999 20.03 10.701 20.03C10.5021 20.03 10.3113 19.951 10.1707 19.8103C10.03 19.6696 9.95103 19.4789 9.95103 19.28V12.72H9.95002ZM11.45 15.183C11.45 15.2095 11.4606 15.2349 11.4793 15.2537C11.4981 15.2724 11.5235 15.283 11.55 15.283H13.063C13.2982 15.2752 13.5212 15.1762 13.6848 15.0071C13.8484 14.8379 13.9399 14.6118 13.9399 14.3765C13.9399 14.1411 13.8484 13.915 13.6848 13.7459C13.5212 13.5767 13.2982 13.4778 13.063 13.47H11.551C11.5245 13.47 11.4991 13.4805 11.4803 13.4993C11.4616 13.518 11.451 13.5434 11.451 13.57V15.183H11.45ZM4.53802 12.054C4.33911 12.054 4.14835 12.133 4.00769 12.2736C3.86704 12.4143 3.78802 12.6051 3.78802 12.804V19.234C3.78802 19.4329 3.86704 19.6236 4.00769 19.7643C4.14835 19.905 4.33911 19.984 4.53802 19.984C4.73694 19.984 4.9277 19.905 5.06836 19.7643C5.20901 19.6236 5.28802 19.4329 5.28802 19.234V16.982C5.28802 16.9554 5.29856 16.93 5.31731 16.9113C5.33607 16.8925 5.3615 16.882 5.38802 16.882H8.12002C8.31894 16.882 8.5097 16.803 8.65036 16.6623C8.79101 16.5216 8.87002 16.3309 8.87002 16.132C8.87002 15.9331 8.79101 15.7423 8.65036 15.6016C8.5097 15.461 8.31894 15.382 8.12002 15.382H5.38802C5.3615 15.382 5.33607 15.3714 5.31731 15.3527C5.29856 15.3339 5.28802 15.3085 5.28802 15.282V13.654C5.28802 13.6274 5.29856 13.602 5.31731 13.5833C5.33607 13.5645 5.3615 13.554 5.38802 13.554H8.17002C8.36894 13.554 8.5597 13.475 8.70035 13.3343C8.84101 13.1936 8.92002 13.0029 8.92002 12.804C8.92002 12.6051 8.84101 12.4143 8.70035 12.2736C8.5597 12.133 8.36894 12.054 8.17002 12.054H4.53802V12.054ZM17.237 12.054C17.0381 12.054 16.8473 12.133 16.7067 12.2736C16.566 12.4143 16.487 12.6051 16.487 12.804V19.234C16.487 19.648 16.823 19.984 17.237 19.984H20.87C21.0689 19.984 21.2597 19.905 21.4004 19.7643C21.541 19.6236 21.62 19.4329 21.62 19.234C21.62 19.0351 21.541 18.8443 21.4004 18.7036C21.2597 18.563 21.0689 18.484 20.87 18.484H18.087C18.0739 18.484 18.0609 18.4814 18.0488 18.4764C18.0366 18.4713 18.0256 18.464 18.0163 18.4547C18.007 18.4454 17.9997 18.4344 17.9946 18.4222C17.9896 18.4101 17.987 18.3971 17.987 18.384V16.982C17.987 16.9554 17.9976 16.93 18.0163 16.9113C18.0351 16.8925 18.0605 16.882 18.087 16.882H20.821C21.0199 16.882 21.2107 16.803 21.3514 16.6623C21.492 16.5216 21.571 16.3309 21.571 16.132C21.571 15.9331 21.492 15.7423 21.3514 15.6016C21.2107 15.461 21.0199 15.382 20.821 15.382H18.087C18.0605 15.382 18.0351 15.3714 18.0163 15.3527C17.9976 15.3339 17.987 15.3085 17.987 15.282V13.654C17.987 13.6274 17.9976 13.602 18.0163 13.5833C18.0351 13.5645 18.0605 13.554 18.087 13.554H20.87C21.0689 13.554 21.2597 13.475 21.4004 13.3343C21.541 13.1936 21.62 13.0029 21.62 12.804C21.62 12.6051 21.541 12.4143 21.4004 12.2736C21.2597 12.133 21.0689 12.054 20.87 12.054H17.237V12.054ZM22.667 12.804C22.667 12.6051 22.746 12.4143 22.8867 12.2736C23.0273 12.133 23.2181 12.054 23.417 12.054H27.049C27.2479 12.054 27.4387 12.133 27.5794 12.2736C27.72 12.4143 27.799 12.6051 27.799 12.804C27.799 13.0029 27.72 13.1936 27.5794 13.3343C27.4387 13.475 27.2479 13.554 27.049 13.554H24.267C24.2405 13.554 24.2151 13.5645 24.1963 13.5833C24.1776 13.602 24.167 13.6274 24.167 13.654V15.282C24.167 15.3085 24.1776 15.3339 24.1963 15.3527C24.2151 15.3714 24.2405 15.382 24.267 15.382H27C27.1989 15.382 27.3897 15.461 27.5304 15.6016C27.671 15.7423 27.75 15.9331 27.75 16.132C27.75 16.3309 27.671 16.5216 27.5304 16.6623C27.3897 16.803 27.1989 16.882 27 16.882H24.267C24.2405 16.882 24.2151 16.8925 24.1963 16.9113C24.1776 16.93 24.167 16.9554 24.167 16.982V18.384C24.167 18.3971 24.1696 18.4101 24.1746 18.4222C24.1797 18.4344 24.187 18.4454 24.1963 18.4547C24.2056 18.464 24.2166 18.4713 24.2288 18.4764C24.2409 18.4814 24.2539 18.484 24.267 18.484H27.049C27.2479 18.484 27.4387 18.563 27.5794 18.7036C27.72 18.8443 27.799 19.0351 27.799 19.234C27.799 19.4329 27.72 19.6236 27.5794 19.7643C27.4387 19.905 27.2479 19.984 27.049 19.984H23.417C23.2181 19.984 23.0273 19.905 22.8867 19.7643C22.746 19.6236 22.667 19.4329 22.667 19.234V12.804V12.804Z" fill="#579FFF"/>
</g>
<g filter="url(#filter4_dd_139_37)">
<path d="M9.95002 12.72C9.95002 12.5211 10.029 12.3303 10.1697 12.1896C10.3103 12.049 10.5011 11.97 10.7 11.97H13.064C13.6577 11.9704 14.2303 12.1902 14.6718 12.5871C15.1133 12.9841 15.3925 13.5302 15.4557 14.1205C15.519 14.7108 15.3618 15.3037 15.0145 15.7852C14.6672 16.2666 14.1542 16.6028 13.574 16.729C13.491 16.747 13.457 16.852 13.519 16.91L15.344 18.624C15.4891 18.7602 15.5741 18.9484 15.5804 19.1473C15.5867 19.3462 15.5137 19.5394 15.3775 19.6845C15.2413 19.8295 15.0531 19.9146 14.8542 19.9209C14.6553 19.9271 14.4621 19.8542 14.317 19.718L11.619 17.184C11.6048 17.1708 11.587 17.162 11.5678 17.1587C11.5487 17.1554 11.529 17.1578 11.5112 17.1656C11.4934 17.1733 11.4782 17.1861 11.4675 17.2023C11.4568 17.2185 11.4511 17.2375 11.451 17.257V19.28C11.451 19.4789 11.372 19.6696 11.2314 19.8103C11.0907 19.951 10.8999 20.03 10.701 20.03C10.5021 20.03 10.3113 19.951 10.1707 19.8103C10.03 19.6696 9.95103 19.4789 9.95103 19.28V12.72H9.95002ZM11.45 15.183C11.45 15.2095 11.4606 15.2349 11.4793 15.2537C11.4981 15.2724 11.5235 15.283 11.55 15.283H13.063C13.2982 15.2752 13.5212 15.1762 13.6848 15.0071C13.8484 14.8379 13.9399 14.6118 13.9399 14.3765C13.9399 14.1411 13.8484 13.915 13.6848 13.7459C13.5212 13.5767 13.2982 13.4778 13.063 13.47H11.551C11.5245 13.47 11.4991 13.4805 11.4803 13.4993C11.4616 13.518 11.451 13.5434 11.451 13.57V15.183H11.45ZM4.53802 12.054C4.33911 12.054 4.14835 12.133 4.00769 12.2736C3.86704 12.4143 3.78802 12.6051 3.78802 12.804V19.234C3.78802 19.4329 3.86704 19.6236 4.00769 19.7643C4.14835 19.905 4.33911 19.984 4.53802 19.984C4.73694 19.984 4.9277 19.905 5.06836 19.7643C5.20901 19.6236 5.28802 19.4329 5.28802 19.234V16.982C5.28802 16.9554 5.29856 16.93 5.31731 16.9113C5.33607 16.8925 5.3615 16.882 5.38802 16.882H8.12002C8.31894 16.882 8.5097 16.803 8.65036 16.6623C8.79101 16.5216 8.87002 16.3309 8.87002 16.132C8.87002 15.9331 8.79101 15.7423 8.65036 15.6016C8.5097 15.461 8.31894 15.382 8.12002 15.382H5.38802C5.3615 15.382 5.33607 15.3714 5.31731 15.3527C5.29856 15.3339 5.28802 15.3085 5.28802 15.282V13.654C5.28802 13.6274 5.29856 13.602 5.31731 13.5833C5.33607 13.5645 5.3615 13.554 5.38802 13.554H8.17002C8.36894 13.554 8.5597 13.475 8.70035 13.3343C8.84101 13.1936 8.92002 13.0029 8.92002 12.804C8.92002 12.6051 8.84101 12.4143 8.70035 12.2736C8.5597 12.133 8.36894 12.054 8.17002 12.054H4.53802V12.054ZM17.237 12.054C17.0381 12.054 16.8473 12.133 16.7067 12.2736C16.566 12.4143 16.487 12.6051 16.487 12.804V19.234C16.487 19.648 16.823 19.984 17.237 19.984H20.87C21.0689 19.984 21.2597 19.905 21.4004 19.7643C21.541 19.6236 21.62 19.4329 21.62 19.234C21.62 19.0351 21.541 18.8443 21.4004 18.7036C21.2597 18.563 21.0689 18.484 20.87 18.484H18.087C18.0739 18.484 18.0609 18.4814 18.0488 18.4764C18.0366 18.4713 18.0256 18.464 18.0163 18.4547C18.007 18.4454 17.9997 18.4344 17.9946 18.4222C17.9896 18.4101 17.987 18.3971 17.987 18.384V16.982C17.987 16.9554 17.9976 16.93 18.0163 16.9113C18.0351 16.8925 18.0605 16.882 18.087 16.882H20.821C21.0199 16.882 21.2107 16.803 21.3514 16.6623C21.492 16.5216 21.571 16.3309 21.571 16.132C21.571 15.9331 21.492 15.7423 21.3514 15.6016C21.2107 15.461 21.0199 15.382 20.821 15.382H18.087C18.0605 15.382 18.0351 15.3714 18.0163 15.3527C17.9976 15.3339 17.987 15.3085 17.987 15.282V13.654C17.987 13.6274 17.9976 13.602 18.0163 13.5833C18.0351 13.5645 18.0605 13.554 18.087 13.554H20.87C21.0689 13.554 21.2597 13.475 21.4004 13.3343C21.541 13.1936 21.62 13.0029 21.62 12.804C21.62 12.6051 21.541 12.4143 21.4004 12.2736C21.2597 12.133 21.0689 12.054 20.87 12.054H17.237V12.054ZM22.667 12.804C22.667 12.6051 22.746 12.4143 22.8867 12.2736C23.0273 12.133 23.2181 12.054 23.417 12.054H27.049C27.2479 12.054 27.4387 12.133 27.5794 12.2736C27.72 12.4143 27.799 12.6051 27.799 12.804C27.799 13.0029 27.72 13.1936 27.5794 13.3343C27.4387 13.475 27.2479 13.554 27.049 13.554H24.267C24.2405 13.554 24.2151 13.5645 24.1963 13.5833C24.1776 13.602 24.167 13.6274 24.167 13.654V15.282C24.167 15.3085 24.1776 15.3339 24.1963 15.3527C24.2151 15.3714 24.2405 15.382 24.267 15.382H27C27.1989 15.382 27.3897 15.461 27.5304 15.6016C27.671 15.7423 27.75 15.9331 27.75 16.132C27.75 16.3309 27.671 16.5216 27.5304 16.6623C27.3897 16.803 27.1989 16.882 27 16.882H24.267C24.2405 16.882 24.2151 16.8925 24.1963 16.9113C24.1776 16.93 24.167 16.9554 24.167 16.982V18.384C24.167 18.3971 24.1696 18.4101 24.1746 18.4222C24.1797 18.4344 24.187 18.4454 24.1963 18.4547C24.2056 18.464 24.2166 18.4713 24.2288 18.4764C24.2409 18.4814 24.2539 18.484 24.267 18.484H27.049C27.2479 18.484 27.4387 18.563 27.5794 18.7036C27.72 18.8443 27.799 19.0351 27.799 19.234C27.799 19.4329 27.72 19.6236 27.5794 19.7643C27.4387 19.905 27.2479 19.984 27.049 19.984H23.417C23.2181 19.984 23.0273 19.905 22.8867 19.7643C22.746 19.6236 22.667 19.4329 22.667 19.234V12.804V12.804Z" fill="#FCF2FF"/>
</g>
</g>
<defs>
<filter id="filter0_dd_139_37" x="-1.06598" y="-1.93701" width="34.875" height="33.875" filterUnits="userSpaceOnUse" color-interpolation-filters="sRGB">
<feFlood flood-opacity="0" result="BackgroundImageFix"/>
<feColorMatrix in="SourceAlpha" type="matrix" values="0 0 0 0 0 0 0 0 0 0 0 0 0 0 0 0 0 0 127 0" result="hardAlpha"/>
<feOffset dx="1" dy="-1"/>
<feGaussianBlur stdDeviation="1.5"/>
<feComposite in2="hardAlpha" operator="out"/>
<feColorMatrix type="matrix" values="0 0 0 0 0.188235 0 0 0 0 0.470588 0 0 0 0 0.843137 0 0 0 1 0"/>
<feBlend mode="normal" in2="BackgroundImageFix" result="effect1_dropShadow_139_37"/>
<feColorMatrix in="SourceAlpha" type="matrix" values="0 0 0 0 0 0 0 0 0 0 0 0 0 0 0 0 0 0 127 0" result="hardAlpha"/>
<feOffset dy="-1"/>
<feGaussianBlur stdDeviation="1.5"/>
<feComposite in2="hardAlpha" operator="out"/>
<feColorMatrix type="matrix" values="0 0 0 0 0.27451 0 0 0 0 0.34902 0 0 0 0 0.8 0 0 0 1 0"/>
<feBlend mode="normal" in2="effect1_dropShadow_139_37" result="effect2_dropShadow_139_37"/>
<feBlend mode="normal" in="SourceGraphic" in2="effect2_dropShadow_139_37" result="shape"/>
</filter>
<filter id="filter1_f_139_37" x="25.372" y="1.81299" width="5.5" height="28.375" filterUnits="userSpaceOnUse" color-interpolation-filters="sRGB">
<feFlood flood-opacity="0" result="BackgroundImageFix"/>
<feBlend mode="normal" in="SourceGraphic" in2="BackgroundImageFix" result="shape"/>
<feGaussianBlur stdDeviation="1" result="effect1_foregroundBlur_139_37"/>
</filter>
<filter id="filter2_f_139_37" x="2.64801" y="1.125" width="27.282" height="5.5" filterUnits="userSpaceOnUse" color-interpolation-filters="sRGB">
<feFlood flood-opacity="0" result="BackgroundImageFix"/>
<feBlend mode="normal" in="SourceGraphic" in2="BackgroundImageFix" result="shape"/>
<feGaussianBlur stdDeviation="1" result="effect1_foregroundBlur_139_37"/>
</filter>
<filter id="filter3_f_139_37" x="2.78802" y="10.97" width="26.011" height="10.0601" filterUnits="userSpaceOnUse" color-interpolation-filters="sRGB">
<feFlood flood-opacity="0" result="BackgroundImageFix"/>
<feBlend mode="normal" in="SourceGraphic" in2="BackgroundImageFix" result="shape"/>
<feGaussianBlur stdDeviation="0.5" result="effect1_foregroundBlur_139_37"/>
</filter>
<filter id="filter4_dd_139_37" x="0.788025" y="10.57" width="28.411" height="12.4601" filterUnits="userSpaceOnUse" color-interpolation-filters="sRGB">
<feFlood flood-opacity="0" result="BackgroundImageFix"/>
<feColorMatrix in="SourceAlpha" type="matrix" values="0 0 0 0 0 0 0 0 0 0 0 0 0 0 0 0 0 0 127 0" result="hardAlpha"/>
<feOffset dx="-1" dy="1"/>
<feGaussianBlur stdDeviation="1"/>
<feComposite in2="hardAlpha" operator="out"/>
<feColorMatrix type="matrix" values="0 0 0 0 0.866667 0 0 0 0 0.819608 0 0 0 0 0.941176 0 0 0 1 0"/>
<feBlend mode="normal" in2="BackgroundImageFix" result="effect1_dropShadow_139_37"/>
<feColorMatrix in="SourceAlpha" type="matrix" values="0 0 0 0 0 0 0 0 0 0 0 0 0 0 0 0 0 0 127 0" result="hardAlpha"/>
<feOffset dx="0.4" dy="-0.4"/>
<feGaussianBlur stdDeviation="0.5"/>
<feComposite in2="hardAlpha" operator="out"/>
<feColorMatrix type="matrix" values="0 0 0 0 1 0 0 0 0 0.988235 0 0 0 0 1 0 0 0 1 0"/>
<feBlend mode="normal" in2="effect1_dropShadow_139_37" result="effect2_dropShadow_139_37"/>
<feBlend mode="normal" in="SourceGraphic" in2="effect2_dropShadow_139_37" result="shape"/>
</filter>
<linearGradient id="paint0_linear_139_37" x1="15.872" y1="5.63699" x2="15.872" y2="38.89" gradientUnits="userSpaceOnUse">
<stop stop-color="#5CB7FF"/>
<stop offset="1" stop-color="#4878DD"/>
</linearGradient>
<radialGradient id="paint1_radial_139_37" cx="0" cy="0" r="1" gradientUnits="userSpaceOnUse" gradientTransform="translate(27.59 4.15599) rotate(136.771) scale(2.14444 2.50466)">
<stop stop-color="#7BD7FF"/>
<stop offset="1" stop-color="#7BD7FF" stop-opacity="0"/>
</radialGradient>
<linearGradient id="paint2_linear_139_37" x1="-nan" y1="-nan" x2="-nan" y2="-nan" gradientUnits="userSpaceOnUse">
<stop stop-color="#7FD9FF"/>
<stop offset="1" stop-color="#639DF4"/>
</linearGradient>
<linearGradient id="paint3_linear_139_37" x1="-nan" y1="-nan" x2="-nan" y2="-nan" gradientUnits="userSpaceOnUse">
<stop stop-color="#7DD8FF"/>
<stop offset="1" stop-color="#5DB6FF"/>
</linearGradient>
<clipPath id="clip0_139_37">
<rect width="32" height="32" fill="white"/>
</clipPath>
</defs>
</svg>
