<svg width="452" height="459" viewBox="0 0 452 459" fill="none" xmlns="http://www.w3.org/2000/svg">
<path d="M384.778 138.429C408.118 168.506 439.235 193.962 448.389 224.545C457.691 255.507 445.293 291.713 432.642 330.611C420.256 369.627 407.617 411.334 379.751 435.32C351.62 459.188 308.114 464.956 273.226 449.342C238.222 433.987 212.101 397.368 194.016 369.019C176.047 340.411 166.759 320.051 130.698 304.223C94.9012 288.513 32.2145 277.595 10.2722 252.195C-11.8182 226.416 6.95207 185.895 26.0504 146.767C45.0007 107.261 64.6596 69.0068 95.4741 41.9778C126.553 15.0671 168.671 -0.359058 209.305 1.00014C250.319 2.21802 289.996 20.5992 317.805 47.0678C345.498 73.7959 361.059 108.493 384.778 138.429Z" fill="#FFA25F" fill-opacity="0.7"/>
</svg>
