<svg width="28" height="26" viewBox="0 0 28 26" fill="none" xmlns="http://www.w3.org/2000/svg">
<rect width="28" height="26" rx="5" fill="white"/>
<path d="M7.58525 6.27705L13.7972 12.4829C13.871 12.5567 13.9231 12.6368 13.9535 12.723C13.9845 12.8091 14 12.9015 14 13C14 13.0985 13.9845 13.1909 13.9535 13.277C13.9231 13.3632 13.871 13.4433 13.7972 13.5172L7.58525 19.7414C7.41321 19.9138 7.19816 20 6.94009 20C6.68203 20 6.46083 19.9077 6.2765 19.723C6.09217 19.5383 6 19.3228 6 19.0765C6 18.8303 6.09217 18.6148 6.2765 18.4301L11.6959 13L6.2765 7.56992C6.10445 7.39754 6.01843 7.18526 6.01843 6.93309C6.01843 6.68042 6.1106 6.46174 6.29493 6.27705C6.47926 6.09235 6.69432 6 6.94009 6C7.18587 6 7.40092 6.09235 7.58525 6.27705Z" fill="black"/>
<path d="M15.5853 6.27705L21.7972 12.4829C21.871 12.5567 21.9231 12.6368 21.9535 12.723C21.9845 12.8091 22 12.9015 22 13C22 13.0985 21.9845 13.1909 21.9535 13.277C21.9231 13.3632 21.871 13.4433 21.7972 13.5172L15.5853 19.7414C15.4132 19.9138 15.1982 20 14.9401 20C14.682 20 14.4608 19.9077 14.2765 19.723C14.0922 19.5383 14 19.3228 14 19.0765C14 18.8303 14.0922 18.6148 14.2765 18.4301L19.6959 13L14.2765 7.56992C14.1045 7.39754 14.0184 7.18526 14.0184 6.93309C14.0184 6.68042 14.1106 6.46174 14.2949 6.27705C14.4793 6.09235 14.6943 6 14.9401 6C15.1859 6 15.4009 6.09235 15.5853 6.27705Z" fill="black"/>
</svg>
