<svg width="50" height="50" viewBox="0 0 50 50" fill="none" xmlns="http://www.w3.org/2000/svg">
<path d="M42.7344 23.0859H46.1719C46.9531 23.0859 47.5391 23.7109 47.5391 24.4531C47.5391 25.2344 46.9141 25.8203 46.1719 25.8203H42.7344V23.0859Z" fill="#EA6C3A"/>
<path d="M11.5625 9.88281C11.4063 10.9766 11.1328 13.0469 10.9766 14.1406C10.8984 14.5703 10.4297 14.8437 10.0391 14.6484C8.90625 14.1016 8.20313 12.8906 8.39844 11.6016C8.59375 10.3125 9.60938 9.33593 10.8203 9.10156C11.25 9.02343 11.6406 9.41406 11.5625 9.88281Z" fill="#FAC136"/>
<path d="M7.57812 42.0703C11.3535 42.0703 14.4141 39.0098 14.4141 35.2344C14.4141 31.459 11.3535 28.3984 7.57812 28.3984C3.80274 28.3984 0.742188 31.459 0.742188 35.2344C0.742188 39.0098 3.80274 42.0703 7.57812 42.0703Z" fill="#2F2F2F"/>
<path d="M7.57812 39.0234C9.67077 39.0234 11.3672 37.327 11.3672 35.2344C11.3672 33.1417 9.67077 31.4453 7.57812 31.4453C5.48548 31.4453 3.78906 33.1417 3.78906 35.2344C3.78906 37.327 5.48548 39.0234 7.57812 39.0234Z" fill="#65878D"/>
<path d="M38.1641 42.0703C41.9394 42.0703 45 39.0098 45 35.2344C45 31.459 41.9394 28.3984 38.1641 28.3984C34.3887 28.3984 31.3281 31.459 31.3281 35.2344C31.3281 39.0098 34.3887 42.0703 38.1641 42.0703Z" fill="#2F2F2F"/>
<path d="M38.1641 39.0234C40.2567 39.0234 41.9531 37.327 41.9531 35.2344C41.9531 33.1417 40.2567 31.4453 38.1641 31.4453C36.0714 31.4453 34.375 33.1417 34.375 35.2344C34.375 37.327 36.0714 39.0234 38.1641 39.0234Z" fill="#65878D"/>
<path d="M37.3828 21.3672H37.461C38.2813 21.4063 49.6875 22.4609 49.6875 34.8828C49.6875 35.625 49.0625 36.25 48.3203 36.25H20.1563C17.1875 36.25 14.4141 34.9609 12.461 32.7344L8.71097 28.3984C8.20315 27.8125 8.00784 27.0312 8.16409 26.25C8.94534 22.6953 10.4688 19.3359 12.6953 16.4063L13.3985 15.4688H16.3282L13.5938 26.7578C13.7891 30.1563 16.6407 32.8125 20.0391 32.8516H24.8438C27.0313 32.8516 28.7891 31.0938 28.7891 28.9063C28.7891 27.5391 28.086 26.2891 26.9141 25.5469L24.6094 24.1016C24.1407 23.7891 23.8282 23.2422 23.8282 22.6953V21.3281H37.3828V21.3672Z" fill="#47C0E5"/>
<path d="M36.9531 24.2578C36.9141 24.2578 36.9141 24.2578 36.9531 24.2578C36.6406 24.2578 36.4062 24.5313 36.4062 24.8047C36.4062 25.1172 36.6406 25.3516 36.9531 25.3516C41.7578 25.3516 45.625 29.2187 45.625 34.0234C45.625 34.3359 45.8594 34.5703 46.1719 34.5703C46.4844 34.5703 46.7188 34.3359 46.7188 34.0234C46.7188 28.6328 42.3438 24.2578 36.9531 24.2578Z" fill="#BAE9F3"/>
<path d="M25.8594 22.8516L23.8281 21.9141C23.5156 21.7578 23.3203 21.4453 23.3203 21.1328C23.3203 19.2969 24.8047 17.7735 26.6797 17.7735H32.3438C34.2578 17.7735 36.2109 17.6563 38.125 17.3828C40 17.2266 41.5625 18.711 41.5625 20.586V21.9141C41.5625 22.3438 41.2109 22.7344 40.7422 22.7344L28.7109 23.2422C27.7344 23.4375 26.7578 23.2813 25.8594 22.8516ZM42.8516 10.7031L42.8125 10.7813C42.1094 11.836 41.7188 13.0469 41.7188 14.2969V15.0781C41.7188 15.4297 41.9531 15.7813 42.3047 15.8985L42.7734 16.0547C43.2031 16.1719 43.6719 15.9375 43.8281 15.5078L45 11.6406C45.1562 11.1719 44.8828 10.7031 44.4141 10.586L43.75 10.3906C43.3984 10.2735 43.0469 10.3906 42.8516 10.7031Z" fill="#2F2F2F"/>
<path d="M45.1172 11.7188C45.3516 11.7969 45.4688 12.0313 45.3906 12.2657L43.1641 20.1563C42.9688 20.8985 42.3828 21.5235 41.6797 21.7969L40.7031 22.1875V21.211L40.9375 21.1328C41.7188 20.8594 42.3047 20.2344 42.5391 19.4141L44.5703 11.9922C44.6484 11.7969 44.8828 11.6407 45.1172 11.7188Z" fill="#2F2F2F"/>
<path d="M16.6797 14.6094L17.1875 12.8906C17.3438 12.4219 17.1875 11.875 16.7969 11.5625L15.1563 10.1562C14.4922 9.60937 13.6719 9.25781 12.8125 9.17969L10.2735 8.98438C10.0781 8.98438 9.92189 9.0625 9.84377 9.21875L9.53127 9.92187C9.02345 11.0547 8.78908 12.2656 8.8672 13.4766L8.90627 14.1406C8.90627 14.3359 9.06252 14.4922 9.25783 14.5312L10.9375 14.7656C12.2656 14.9609 13.086 16.3281 12.5781 17.6172L15.9375 16.9531L16.6797 14.6094Z" fill="#47C0E5"/>
<path d="M15 10.1562C15 10.1562 14.2969 9.84373 13.9062 10.8203C13.5156 11.7578 14.3359 12.6172 14.3359 12.6172L17.2656 13.5937C17.8516 13.789 18.4766 13.3984 18.5937 12.7734C18.6719 12.3437 18.4375 11.914 18.0469 11.7187L15 10.1562Z" fill="#2F2F2F"/>
<path d="M1.17188 32.6953H2.9297C6.95313 32.7343 10.8594 34.0234 14.1797 36.3672C14.7266 36.7578 15.4688 36.3281 15.4297 35.625C15.3906 34.7656 15.2344 33.5937 14.8047 32.3828C14.0234 30.039 12.3828 27.9687 9.8047 27.2656C4.45313 25.8203 1.60157 29.414 0.468759 31.4062C0.195321 32.0312 0.585946 32.6953 1.17188 32.6953Z" fill="#47C0E5"/>
<path d="M5.85938 29.0625C5.85938 29.0625 8.67188 28.125 10.9766 29.8828C12.5391 31.0547 13.0469 32.7344 13.0469 32.7344" stroke="#BAE9F3" stroke-width="2.5" stroke-miterlimit="10" stroke-linecap="round"/>
</svg>
