<svg width="40" height="40" viewBox="0 0 40 40" fill="none" xmlns="http://www.w3.org/2000/svg">
<path d="M11.25 16.4453C11.25 16.9426 11.4475 17.4195 11.7992 17.7711C12.1508 18.1228 12.6277 18.3203 13.125 18.3203C13.6223 18.3203 14.0992 18.1228 14.4508 17.7711C14.8025 17.4195 15 16.9426 15 16.4453C15 15.948 14.8025 15.4711 14.4508 15.1195C14.0992 14.7679 13.6223 14.5703 13.125 14.5703C12.6277 14.5703 12.1508 14.7679 11.7992 15.1195C11.4475 15.4711 11.25 15.948 11.25 16.4453V16.4453ZM25 16.4453C25 16.9426 25.1975 17.4195 25.5492 17.7711C25.9008 18.1228 26.3777 18.3203 26.875 18.3203C27.3723 18.3203 27.8492 18.1228 28.2008 17.7711C28.5525 17.4195 28.75 16.9426 28.75 16.4453C28.75 15.948 28.5525 15.4711 28.2008 15.1195C27.8492 14.7679 27.3723 14.5703 26.875 14.5703C26.3777 14.5703 25.9008 14.7679 25.5492 15.1195C25.1975 15.4711 25 15.948 25 16.4453V16.4453ZM20 2.5C10.3359 2.5 2.5 10.3359 2.5 20C2.5 29.6641 10.3359 37.5 20 37.5C29.6641 37.5 37.5 29.6641 37.5 20C37.5 10.3359 29.6641 2.5 20 2.5ZM30.2734 30.2734C28.9375 31.6094 27.3828 32.6562 25.6523 33.3906C23.8672 34.1484 21.9648 34.5312 20 34.5312C18.0352 34.5312 16.1328 34.1484 14.3438 33.3906C12.6159 32.6609 11.0464 31.6022 9.72266 30.2734C8.38672 28.9375 7.33984 27.3828 6.60547 25.6523C5.85156 23.8672 5.46875 21.9648 5.46875 20C5.46875 18.0352 5.85156 16.1328 6.60937 14.3438C7.33909 12.6159 8.3978 11.0464 9.72656 9.72266C11.0625 8.38672 12.6172 7.33984 14.3477 6.60547C16.1328 5.85156 18.0352 5.46875 20 5.46875C21.9648 5.46875 23.8672 5.85156 25.6562 6.60937C27.3841 7.33909 28.9536 8.3978 30.2773 9.72656C31.6133 11.0625 32.6602 12.6172 33.3945 14.3477C34.1484 16.1328 34.5312 18.0352 34.5312 20C34.5312 21.9648 34.1484 23.8672 33.3906 25.6562C32.6618 27.3834 31.6029 28.9518 30.2734 30.2734V30.2734ZM25.9375 20.8203H24.0586C23.8945 20.8203 23.7539 20.9453 23.7422 21.1094C23.5937 23.043 21.9727 24.5703 20 24.5703C18.0273 24.5703 16.4023 23.043 16.2578 21.1094C16.2461 20.9453 16.1055 20.8203 15.9414 20.8203H14.0625C14.0201 20.8203 13.9782 20.8288 13.9392 20.8455C13.9002 20.8622 13.865 20.8866 13.8358 20.9173C13.8066 20.948 13.7839 20.9843 13.7691 21.024C13.7544 21.0638 13.7479 21.1061 13.75 21.1484C13.9219 24.4414 16.6602 27.0703 20 27.0703C23.3398 27.0703 26.0781 24.4414 26.25 21.1484C26.2521 21.1061 26.2456 21.0638 26.2309 21.024C26.2161 20.9843 26.1934 20.948 26.1642 20.9173C26.135 20.8866 26.0998 20.8622 26.0608 20.8455C26.0218 20.8288 25.9799 20.8203 25.9375 20.8203V20.8203Z" fill="black"/>
</svg>
